<svg xmlns="http://www.w3.org/2000/svg" viewBox="0 0 14 11.38">
  <path fill-rule="evenodd" d="M14 1.35a5.67 5.67 0 0 1-1.65.45A2.89 2.89 0 0 0 13.61.21a5.74 5.74 0 0 1-1.82.7A2.87 2.87 0 0 0 6.9 3.53a8.2 8.2 0 0 1-5.9-3A2.9 2.9 0 0 0 .58 2a2.86 2.86 0 0 0 1.28 2.36A2.75 2.75 0 0 1 .56 4a2.86 2.86 0 0 0 2.31 2.85 2.78 2.78 0 0 1-.76.1 2.36 2.36 0 0 1-.54 0 2.89 2.89 0 0 0 2.68 2 5.75 5.75 0 0 1-3.56 1.18H0a8.16 8.16 0 0 0 4.4 1.29 8.11 8.11 0 0 0 8.17-8.17v-.42A5.75 5.75 0 0 0 14 1.35z"/>
</svg>
