<?xml version="1.0" encoding="utf-8"?>
<!-- Generator: Adobe Illustrator 23.0.6, SVG Export Plug-In . SVG Version: 6.00 Build 0)  -->
<svg version="1.1" id="Warstwa_1" xmlns="http://www.w3.org/2000/svg" xmlns:xlink="http://www.w3.org/1999/xlink" x="0px" y="0px"
	 viewBox="0 0 38 38" style="enable-background:new 0 0 38 38;" xml:space="preserve">
<style type="text/css">
	.st0{fill:#00B7B4;}
</style>
<path class="st0" d="M18.7,37.4C8.4,37.4,0,29,0,18.7C0,8.4,8.4,0,18.7,0C22,0,25.2,0.8,28,2.4l-2,3.5C23.8,4.7,21.3,4,18.7,4
	C10.6,4,4,10.6,4,18.7s6.6,14.7,14.7,14.7c8.1,0,14.7-6.6,14.7-14.7c0-1.2-0.1-2.3-0.4-3.4l3.9-0.9c0.3,1.4,0.5,2.9,0.5,4.4
	C37.4,29,29,37.4,18.7,37.4z"/>
<polygon class="st0" points="18.7,24 10.4,15.2 13.3,12.5 18.7,18.2 34.2,2.8 37,5.6 "/>
</svg>
