<?xml version="1.0" encoding="utf-8"?>
<!-- Generator: Adobe Illustrator 23.0.6, SVG Export Plug-In . SVG Version: 6.00 Build 0)  -->
<svg version="1.1" id="Warstwa_1" xmlns="http://www.w3.org/2000/svg" xmlns:xlink="http://www.w3.org/1999/xlink" x="0px" y="0px"
	 viewBox="0 0 38 38" style="enable-background:new 0 0 38 38;" xml:space="preserve">
<style type="text/css">
	.st0{fill:#00B7B4;}
</style>
<path class="st0" d="M25.3,37.9h-4v-4.5h4V37.9z M16.6,37.9h-4v-4.5h4V37.9z M31.2,31.7H6.8V7.3h24.4V31.7z M10.8,27.7h16.4V11.3
	H10.8V27.7z M37.9,25.3h-4.5v-4h4.5V25.3z M4.5,25.3H0v-4h4.5V25.3z M37.9,16.6h-4.5v-4h4.5V16.6z M4.5,16.6H0v-4h4.5V16.6z
	 M25.3,4.5h-4V0h4V4.5z M16.6,4.5h-4V0h4V4.5z"/>
</svg>
