<?xml version="1.0" encoding="utf-8"?>
<svg version="1.1" xmlns="http://www.w3.org/2000/svg" xmlns:xlink="http://www.w3.org/1999/xlink" x="0px" y="0px"
	 viewBox="0 0 173.2 36.8" style="enable-background:new 0 0 173.2 36.8;" xml:space="preserve">
<path d="M13.1,36.3h7.2v-15L33.4,0.6h-8.3l-8.2,14.1L8.5,0.6H0l13.1,20.7V36.3z M28.4,16.4c-1.1,2.1-1.7,4.3-1.7,6.6
	c0,3,0.6,5.5,1.7,7.6s2.8,3.6,4.9,4.7c2.2,1.1,4.4,1.6,6.8,1.6c3.8,0,7-1.3,9.5-3.9c2.5-2.6,3.8-5.8,3.8-9.7s-1.3-7.1-3.8-9.6
	S43.9,9.9,40,9.9c-2.5,0-4.8,0.6-6.9,1.7C31.1,12.6,29.5,14.3,28.4,16.4L28.4,16.4z M35.5,17.5c1.2-1.4,2.7-2,4.5-2s3.3,0.7,4.5,2
	c1.2,1.4,1.8,3.3,1.8,5.8c0,2.6-0.6,4.6-1.8,5.9c-1.2,1.4-2.7,2-4.5,2s-3.3-0.7-4.5-2c-1.2-1.4-1.8-3.3-1.8-5.9S34.3,18.8,35.5,17.5
	z M59.5,35.7c1.4,0.8,2.9,1.1,4.7,1.1c1.7,0,3.4-0.4,4.9-1.2s2.8-1.9,3.7-3.3v3.9h6.4V10.3h-6.8v10.9c0,3.7-0.2,6-0.5,7
	s-1,1.7-1.9,2.4c-0.9,0.6-2,1-3.1,1c-1,0-1.9-0.2-2.5-0.7c-0.7-0.5-1.1-1.1-1.4-1.9c-0.3-0.8-0.4-3.1-0.4-6.7V10.4h-6.8v16.4
	c0,2.4,0.3,4.3,0.9,5.7C57.1,33.9,58.1,35,59.5,35.7L59.5,35.7z M170.7,5.9h0.4c0.2,0,0.4,0,0.5,0.1c0.2,0.1,0.4,0.4,0.6,0.9
	l0.3,0.6h0.7l-0.5-0.7c-0.2-0.3-0.4-0.6-0.6-0.7C172,6,171.9,6,171.8,5.9c0.3,0,0.6-0.1,0.8-0.3c0.2-0.2,0.3-0.4,0.3-0.7
	c0-0.2-0.1-0.4-0.2-0.5c-0.1-0.2-0.3-0.3-0.5-0.4s-0.5-0.1-1-0.1h-1.3v3.7h0.6V5.9H170.7z M170.7,4.3h0.7c0.3,0,0.5,0,0.6,0.1
	c0.1,0,0.2,0.1,0.3,0.2c0.1,0.1,0.1,0.2,0.1,0.3c0,0.2-0.1,0.3-0.2,0.4s-0.4,0.2-0.7,0.2h-0.7L170.7,4.3L170.7,4.3z M124.1,35.3
	c2.2,1.1,4.4,1.6,6.8,1.6c3.8,0,7-1.3,9.5-3.9c2.5-2.6,3.8-5.8,3.8-9.7s-1.3-7.1-3.8-9.6s-5.7-3.8-9.6-3.8c-2.5,0-4.8,0.6-6.9,1.7
	s-3.6,2.7-4.8,4.9c-1.1,2.1-1.7,4.3-1.7,6.6c0,3,0.6,5.5,1.7,7.6C120.3,32.6,121.9,34.2,124.1,35.3L124.1,35.3z M126.3,17.5
	c1.2-1.4,2.7-2,4.5-2s3.3,0.7,4.5,2c1.2,1.4,1.8,3.3,1.8,5.8c0,2.6-0.6,4.6-1.8,5.9c-1.2,1.4-2.7,2-4.5,2s-3.3-0.7-4.5-2
	c-1.2-1.4-1.8-3.3-1.8-5.9C124.5,20.8,125.1,18.8,126.3,17.5z M90.4,34.5c2.8,1.6,6,2.4,9.8,2.4c2.9,0,5.8-0.6,8.7-1.7
	c2.9-1.1,5.1-2.4,6.6-3.9V17.1H100v6h8.3v4.5c-1.1,0.8-2.4,1.6-3.9,2.2c-1.5,0.6-3,0.9-4.5,0.9c-3.1,0-5.5-1.1-7.4-3.2
	c-1.9-2.1-2.8-5.3-2.8-9.5c0-3.9,0.9-6.9,2.8-8.9s4.4-3,7.5-3c2.1,0,3.8,0.5,5.2,1.5c1.4,1,2.3,2.4,2.8,4.2l7.2-1.3
	c-0.7-3.3-2.3-5.9-4.8-7.7c-2.5-1.9-6-2.8-10.4-2.8c-3.4,0-6.3,0.6-8.6,1.8c-3,1.5-5.3,3.8-6.8,6.7c-1.6,2.9-2.3,6.2-2.3,9.9
	c0,3.4,0.7,6.6,2.1,9.5C85.5,30.7,87.6,33,90.4,34.5L90.4,34.5z M153.7,36.3h6.2l10.3-25.9h-7l-4.9,13.2c-0.3,0.7-0.5,1.5-0.7,2.2
	c-0.1,0.4-0.3,1.1-0.7,2.2l-1.4-4.4l-4.9-13.2h-7.2L153.7,36.3L153.7,36.3z"/>
<path d="M497.9,506.7c0.5,0.3,1.1,0.5,1.7,0.5s1.2-0.2,1.7-0.5s1-0.7,1.3-1.3c0.3-0.6,0.5-1.1,0.5-1.7s-0.2-1.2-0.5-1.7
	c-0.3-0.6-0.7-1-1.3-1.3c-0.6-0.3-1.1-0.4-1.7-0.4s-1.2,0.2-1.7,0.4c-0.5,0.3-1,0.7-1.3,1.3c-0.3,0.6-0.5,1.1-0.5,1.7
	s0.2,1.2,0.5,1.7S497.3,506.4,497.9,506.7z M497.1,502.2c0.3-0.5,0.6-0.8,1.1-1.1c0.5-0.2,0.9-0.4,1.4-0.4s1,0.1,1.4,0.4
	c0.5,0.2,0.8,0.6,1.1,1.1c0.3,0.5,0.4,0.9,0.4,1.4s-0.1,1-0.4,1.4c-0.3,0.5-0.6,0.8-1.1,1.1c-0.5,0.3-0.9,0.4-1.4,0.4
	s-1-0.1-1.4-0.4c-0.5-0.3-0.8-0.6-1.1-1.1c-0.3-0.5-0.4-0.9-0.4-1.4C496.7,503.2,496.8,502.7,497.1,502.2z"/>
</svg>
