<svg xmlns="http://www.w3.org/2000/svg" xmlns:xlink="http://www.w3.org/1999/xlink" width="151" height="32" viewBox="0 0 3249 3834">
  <path d="M0 0v3834h3249V0H0zm3246 3831H3V3h3243v3828z"/>
  <path d="M341.1 534.4h7.2v-15l13.1-20.7h-8.3l-8.2 14.1-8.4-14.1H328l13.1 20.7zM356.4 514.5c-1.1 2.1-1.7 4.3-1.7 6.6 0 3 .6 5.5 1.7 7.6 1.1 2.1 2.8 3.6 4.9 4.7 2.2 1.1 4.4 1.6 6.8 1.6 3.8 0 7-1.3 9.5-3.9 2.5-2.6 3.8-5.8 3.8-9.7 0-3.9-1.3-7.1-3.8-9.6s-5.7-3.8-9.6-3.8c-2.5 0-4.8.6-6.9 1.7-2 1-3.6 2.7-4.7 4.8zm7.1 1.1c1.2-1.4 2.7-2 4.5-2 1.8 0 3.3.7 4.5 2 1.2 1.4 1.8 3.3 1.8 5.8 0 2.6-.6 4.6-1.8 5.9-1.2 1.4-2.7 2-4.5 2-1.8 0-3.3-.7-4.5-2-1.2-1.4-1.8-3.3-1.8-5.9s.6-4.5 1.8-5.8zM387.5 533.8c1.4.8 2.9 1.1 4.7 1.1 1.7 0 3.4-.4 4.9-1.2 1.5-.8 2.8-1.9 3.7-3.3v3.9h6.4v-25.9h-6.8v10.9c0 3.7-.2 6-.5 7s-1 1.7-1.9 2.4c-.9.6-2 1-3.1 1-1 0-1.9-.2-2.5-.7-.7-.5-1.1-1.1-1.4-1.9-.3-.8-.4-3.1-.4-6.7v-11.9h-6.8v16.4c0 2.4.3 4.3.9 5.7.4 1.4 1.4 2.5 2.8 3.2zM498.7 504h.4c.2 0 .4 0 .5.1.2.1.4.4.6.9l.3.6h.7l-.5-.7c-.2-.3-.4-.6-.6-.7-.1-.1-.2-.1-.3-.2.3 0 .6-.1.8-.3.2-.2.3-.4.3-.7 0-.2-.1-.4-.2-.5-.1-.2-.3-.3-.5-.4-.2-.1-.5-.1-1-.1h-1.3v3.7h.6V504zm0-1.6h.7c.3 0 .5 0 .6.1.1 0 .2.1.3.2.1.1.1.2.1.3 0 .2-.1.3-.2.4-.1.1-.4.2-.7.2h-.7v-1.2zM452.1 533.4c2.2 1.1 4.4 1.6 6.8 1.6 3.8 0 7-1.3 9.5-3.9 2.5-2.6 3.8-5.8 3.8-9.7 0-3.9-1.3-7.1-3.8-9.6s-5.7-3.8-9.6-3.8c-2.5 0-4.8.6-6.9 1.7-2.1 1.1-3.6 2.7-4.8 4.9-1.1 2.1-1.7 4.3-1.7 6.6 0 3 .6 5.5 1.7 7.6 1.2 1.9 2.8 3.5 5 4.6zm2.2-17.8c1.2-1.4 2.7-2 4.5-2 1.8 0 3.3.7 4.5 2 1.2 1.4 1.8 3.3 1.8 5.8 0 2.6-.6 4.6-1.8 5.9-1.2 1.4-2.7 2-4.5 2-1.8 0-3.3-.7-4.5-2-1.2-1.4-1.8-3.3-1.8-5.9 0-2.5.6-4.5 1.8-5.8zM418.4 532.6c2.8 1.6 6 2.4 9.8 2.4 2.9 0 5.8-.6 8.7-1.7 2.9-1.1 5.1-2.4 6.6-3.9v-14.2H428v6h8.3v4.5c-1.1.8-2.4 1.6-3.9 2.2-1.5.6-3 .9-4.5.9-3.1 0-5.5-1.1-7.4-3.2-1.9-2.1-2.8-5.3-2.8-9.5 0-3.9.9-6.9 2.8-8.9s4.4-3 7.5-3c2.1 0 3.8.5 5.2 1.5 1.4 1 2.3 2.4 2.8 4.2l7.2-1.3c-.7-3.3-2.3-5.9-4.8-7.7-2.5-1.9-6-2.8-10.4-2.8-3.4 0-6.3.6-8.6 1.8-3 1.5-5.3 3.8-6.8 6.7-1.6 2.9-2.3 6.2-2.3 9.9 0 3.4.7 6.6 2.1 9.5 1.1 2.8 3.2 5.1 6 6.6zM481.7 534.4h6.2l10.3-25.9h-7l-4.9 13.2c-.3.7-.5 1.5-.7 2.2-.1.4-.3 1.1-.7 2.2l-1.4-4.4-4.9-13.2h-7.2l10.3 25.9z"/>
  <path d="M497.9 506.7c.5.3 1.1.5 1.7.5.6 0 1.2-.2 1.7-.5s1-.7 1.3-1.3c.3-.6.5-1.1.5-1.7 0-.6-.2-1.2-.5-1.7-.3-.6-.7-1-1.3-1.3-.6-.3-1.1-.4-1.7-.4-.6 0-1.2.2-1.7.4-.5.3-1 .7-1.3 1.3-.3.6-.5 1.1-.5 1.7 0 .6.2 1.2.5 1.7s.7 1 1.3 1.3zm-.8-4.5c.3-.5.6-.8 1.1-1.1.5-.2.9-.4 1.4-.4.5 0 1 .1 1.4.4.5.2.8.6 1.1 1.1.3.5.4.9.4 1.4 0 .5-.1 1-.4 1.4-.3.5-.6.8-1.1 1.1-.5.3-.9.4-1.4.4-.5 0-1-.1-1.4-.4-.5-.3-.8-.6-1.1-1.1-.3-.5-.4-.9-.4-1.4 0-.4.1-.9.4-1.4z" />
</svg>
