<?xml version="1.0" encoding="utf-8"?><svg xmlns="http://www.w3.org/2000/svg" xmlns:xlink="http://www.w3.org/1999/xlink"><symbol viewBox="0 0 14 18" id="icon-arrow-down" xmlns="http://www.w3.org/2000/svg"><path d="M7 1.757V12m4.243-3.172L7 13.071 2.758 8.828M13 16.617H1" fill="none" fill-rule="evenodd" stroke="#FF6352" stroke-linecap="round" stroke-width="2"/></symbol><symbol viewBox="0 0 10.2 8.1" id="icon-arrow-right" xmlns="http://www.w3.org/2000/svg"><path d="M6.3.1c-.2-.1-.5-.1-.7 0s-.2.5 0 .7l2.7 2.7H.5c-.3 0-.5.3-.5.5s.2.5.5.5h7.7L5.6 7.2c-.2.2-.2.5 0 .7.1.1.2.2.3.2s.3 0 .4-.1l3.9-4L6.3.1z"/></symbol><symbol viewBox="0 0 14.9 12.2" id="icon-arrow-right-bold" xmlns="http://www.w3.org/2000/svg"><path d="M9.3.3c-.4-.4-1-.4-1.4 0-.4.4-.4 1 0 1.4l3.3 3.4H1c-.6 0-1 .4-1 1s.4 1 1 1h10.1l-3.3 3.4c-.4.4-.4 1 0 1.4.2.2.4.3.7.3.3 0 .5-.1.7-.3l5.6-5.8L9.3.3z"/></symbol><symbol viewBox="0 0 16.8 16.8" id="icon-cross" xmlns="http://www.w3.org/2000/svg"><path fill-rule="evenodd" d="M9.6 8.6l6.9-6.9c.4-.4.4-1 0-1.4s-1-.4-1.4 0L8.2 7.1 1.7.6C1.3.2.7.2.3.6s-.4 1 0 1.4l6.5 6.5-6.2 6.2c-.4.4-.4 1 0 1.4.2.2.5.3.7.3s.5-.1.7-.3L8.2 10l6.6 6.6c.2.2.5.3.7.3s.5-.1.7-.3c.4-.4.4-1 0-1.4L9.6 8.6z"/></symbol><symbol viewBox="0 0 14 16.86" id="icon-download" xmlns="http://www.w3.org/2000/svg"><path d="M7 13.73l4.95-5a1 1 0 000-1.42 1 1 0 00-1.41 0L8 9.9V1a1 1 0 00-2 0v8.9L3.46 7.36a1 1 0 00-1.41 0 1 1 0 000 1.42zm6 1.13H1a1 1 0 000 2h12a1 1 0 000-2z"/></symbol><symbol viewBox="0 0 8 16" id="icon-facebook" xmlns="http://www.w3.org/2000/svg"><path fill-rule="evenodd" d="M6.56 2.66H8V.11A20.13 20.13 0 005.88 0C3.79 0 2.36 1.32 2.36 3.76v2.1H0v2.85h2.36V16H5.2V8.71h2.37l.35-2.85H5.2V4c0-.78.22-1.34 1.36-1.34z"/></symbol><symbol viewBox="0 0 16 16" id="icon-instagram" xmlns="http://www.w3.org/2000/svg"><path fill-rule="evenodd" d="M16 4.7a5.85 5.85 0 00-.37-1.94A4 4 0 0013.24.42 5.85 5.85 0 0011.3.05C10.44 0 10.17 0 8 0S5.56 0 4.7.05a5.85 5.85 0 00-1.94.37A4 4 0 00.42 2.76 5.85 5.85 0 00.05 4.7C0 5.56 0 5.83 0 8s0 2.44.05 3.3a5.85 5.85 0 00.37 1.94 4 4 0 002.34 2.34A5.85 5.85 0 004.7 16H8c2.17 0 2.44 0 3.3-.05a5.85 5.85 0 001.94-.37 4 4 0 002.34-2.34A5.85 5.85 0 0016 11.3c0-.86.05-1.13.05-3.3S16 5.56 16 4.7zm-1.44 6.53a4.33 4.33 0 01-.27 1.49 2.67 2.67 0 01-1.52 1.52 4.33 4.33 0 01-1.49.27c-.84 0-1.09.05-3.23.05s-2.39 0-3.23-.05a4.33 4.33 0 01-1.49-.27 2.67 2.67 0 01-1.52-1.52 4.33 4.33 0 01-.27-1.49c0-.84-.05-1.09-.05-3.23s0-2.39.05-3.23a4.33 4.33 0 01.27-1.49 2.67 2.67 0 011.47-1.52 4.33 4.33 0 011.49-.27c.84 0 1.09-.05 3.23-.05s2.39 0 3.23.05a4.33 4.33 0 011.49.27 2.67 2.67 0 011.52 1.52 4.33 4.33 0 01.27 1.49c0 .84.05 1.09.05 3.23s-.01 2.39-.05 3.23z"/><path fill-rule="evenodd" d="M8 4a4 4 0 104 4 4 4 0 00-4-4zm0 6.6A2.6 2.6 0 1110.6 8 2.61 2.61 0 018 10.6z"/><circle cx="12" cy="4" r="1"/></symbol><symbol viewBox="0 0 8.07 165.89" id="icon-long-arrow-up" xmlns="http://www.w3.org/2000/svg"><path d="M4 1.71v163.68M.5 4.24L4.04.71l3.53 3.53" fill="none" stroke="#ff6352" stroke-linecap="round"/></symbol><symbol viewBox="0 0 12 12" id="icon-rss" xmlns="http://www.w3.org/2000/svg"><path d="M1.6 8.8c-.9 0-1.6.7-1.6 1.6 0 .9.7 1.6 1.6 1.6.9 0 1.6-.7 1.6-1.6 0-.9-.7-1.6-1.6-1.6zM0 0v2.3c5.3 0 9.7 4.4 9.7 9.7H12C12 5.4 6.6 0 0 0z"/><path d="M0 4.1v2.3c1.5 0 2.9.6 4 1.6 1.1 1.1 1.6 2.5 1.6 4h2.3c0-4.4-3.5-7.9-7.9-7.9z"/></symbol><symbol viewBox="0 0 24.3 24.3" id="icon-search" xmlns="http://www.w3.org/2000/svg"><path d="M24 22.6l-5.9-5.9c3.3-4 3.1-10-.7-13.7C13.5-1 7-1 3 3s-4 10.5 0 14.5c2 2 4.6 3 7.2 3 2.3 0 4.6-.8 6.5-2.3l5.9 5.9c.2.2.5.3.7.3s.5-.1.7-.3c.4-.5.4-1.1 0-1.5zM4.4 16.1c-3.2-3.2-3.2-8.4 0-11.6C6 2.8 8.1 2 10.2 2s4.2.8 5.8 2.4c3.2 3.2 3.2 8.4 0 11.6s-8.4 3.3-11.6.1z"/></symbol><symbol viewBox="0 0 14 15" id="icon-triangle" xmlns="http://www.w3.org/2000/svg"><path fill="none" stroke="#FF6352" stroke-linejoin="round" stroke-width="2" d="M12.611 7.1l-11 6.11V.99z"/></symbol><symbol viewBox="0 0 12 14" id="icon-triangle-large" xmlns="http://www.w3.org/2000/svg"><path fill-rule="evenodd" d="M12 7L0 14V0z"/></symbol><symbol viewBox="0 0 14 11.38" id="icon-twitter" xmlns="http://www.w3.org/2000/svg"><path fill-rule="evenodd" d="M14 1.35a5.67 5.67 0 01-1.65.45A2.89 2.89 0 0013.61.21a5.74 5.74 0 01-1.82.7A2.87 2.87 0 006.9 3.53a8.2 8.2 0 01-5.9-3A2.9 2.9 0 00.58 2a2.86 2.86 0 001.28 2.36A2.75 2.75 0 01.56 4a2.86 2.86 0 002.31 2.85 2.78 2.78 0 01-.76.1 2.36 2.36 0 01-.54 0 2.89 2.89 0 002.68 2 5.75 5.75 0 01-3.56 1.18H0a8.16 8.16 0 004.4 1.29 8.11 8.11 0 008.17-8.17v-.42A5.75 5.75 0 0014 1.35z"/></symbol><symbol viewBox="0 0 173.2 36.8" id="icon-yougov" xmlns="http://www.w3.org/2000/svg"><path d="M13.1 36.3h7.2v-15L33.4.6h-8.3l-8.2 14.1L8.5.6H0l13.1 20.7v15zm15.3-19.9c-1.1 2.1-1.7 4.3-1.7 6.6 0 3 .6 5.5 1.7 7.6s2.8 3.6 4.9 4.7c2.2 1.1 4.4 1.6 6.8 1.6 3.8 0 7-1.3 9.5-3.9 2.5-2.6 3.8-5.8 3.8-9.7s-1.3-7.1-3.8-9.6-5.7-3.8-9.6-3.8c-2.5 0-4.8.6-6.9 1.7-2 1-3.6 2.7-4.7 4.8zm7.1 1.1c1.2-1.4 2.7-2 4.5-2s3.3.7 4.5 2c1.2 1.4 1.8 3.3 1.8 5.8 0 2.6-.6 4.6-1.8 5.9-1.2 1.4-2.7 2-4.5 2s-3.3-.7-4.5-2c-1.2-1.4-1.8-3.3-1.8-5.9s.6-4.5 1.8-5.8zm24 18.2c1.4.8 2.9 1.1 4.7 1.1 1.7 0 3.4-.4 4.9-1.2s2.8-1.9 3.7-3.3v3.9h6.4V10.3h-6.8v10.9c0 3.7-.2 6-.5 7s-1 1.7-1.9 2.4c-.9.6-2 1-3.1 1-1 0-1.9-.2-2.5-.7-.7-.5-1.1-1.1-1.4-1.9-.3-.8-.4-3.1-.4-6.7V10.4h-6.8v16.4c0 2.4.3 4.3.9 5.7.4 1.4 1.4 2.5 2.8 3.2zM170.7 5.9h.4c.2 0 .4 0 .5.1.2.1.4.4.6.9l.3.6h.7l-.5-.7c-.2-.3-.4-.6-.6-.7-.1-.1-.2-.1-.3-.2.3 0 .6-.1.8-.3.2-.2.3-.4.3-.7 0-.2-.1-.4-.2-.5-.1-.2-.3-.3-.5-.4s-.5-.1-1-.1h-1.3v3.7h.6V5.9h.2zm0-1.6h.7c.3 0 .5 0 .6.1.1 0 .2.1.3.2.1.1.1.2.1.3 0 .2-.1.3-.2.4s-.4.2-.7.2h-.7l-.1-1.2zm-46.6 31c2.2 1.1 4.4 1.6 6.8 1.6 3.8 0 7-1.3 9.5-3.9 2.5-2.6 3.8-5.8 3.8-9.7s-1.3-7.1-3.8-9.6-5.7-3.8-9.6-3.8c-2.5 0-4.8.6-6.9 1.7s-3.6 2.7-4.8 4.9c-1.1 2.1-1.7 4.3-1.7 6.6 0 3 .6 5.5 1.7 7.6 1.2 1.9 2.8 3.5 5 4.6zm2.2-17.8c1.2-1.4 2.7-2 4.5-2s3.3.7 4.5 2c1.2 1.4 1.8 3.3 1.8 5.8 0 2.6-.6 4.6-1.8 5.9-1.2 1.4-2.7 2-4.5 2s-3.3-.7-4.5-2c-1.2-1.4-1.8-3.3-1.8-5.9 0-2.5.6-4.5 1.8-5.8zm-35.9 17c2.8 1.6 6 2.4 9.8 2.4 2.9 0 5.8-.6 8.7-1.7 2.9-1.1 5.1-2.4 6.6-3.9V17.1H100v6h8.3v4.5c-1.1.8-2.4 1.6-3.9 2.2-1.5.6-3 .9-4.5.9-3.1 0-5.5-1.1-7.4-3.2-1.9-2.1-2.8-5.3-2.8-9.5 0-3.9.9-6.9 2.8-8.9s4.4-3 7.5-3c2.1 0 3.8.5 5.2 1.5 1.4 1 2.3 2.4 2.8 4.2l7.2-1.3c-.7-3.3-2.3-5.9-4.8-7.7C107.9.9 104.4 0 100 0c-3.4 0-6.3.6-8.6 1.8-3 1.5-5.3 3.8-6.8 6.7-1.6 2.9-2.3 6.2-2.3 9.9 0 3.4.7 6.6 2.1 9.5 1.1 2.8 3.2 5.1 6 6.6zm63.3 1.8h6.2l10.3-25.9h-7l-4.9 13.2c-.3.7-.5 1.5-.7 2.2-.1.4-.3 1.1-.7 2.2l-1.4-4.4-4.9-13.2h-7.2l10.3 25.9zM497.9 506.7c.5.3 1.1.5 1.7.5s1.2-.2 1.7-.5 1-.7 1.3-1.3c.3-.6.5-1.1.5-1.7s-.2-1.2-.5-1.7c-.3-.6-.7-1-1.3-1.3-.6-.3-1.1-.4-1.7-.4s-1.2.2-1.7.4c-.5.3-1 .7-1.3 1.3-.3.6-.5 1.1-.5 1.7s.2 1.2.5 1.7.7 1 1.3 1.3zm-.8-4.5c.3-.5.6-.8 1.1-1.1.5-.2.9-.4 1.4-.4s1 .1 1.4.4c.5.2.8.6 1.1 1.1.3.5.4.9.4 1.4s-.1 1-.4 1.4c-.3.5-.6.8-1.1 1.1-.5.3-.9.4-1.4.4s-1-.1-1.4-.4c-.5-.3-.8-.6-1.1-1.1-.3-.5-.4-.9-.4-1.4 0-.4.1-.9.4-1.4z"/></symbol></svg>